<mxfile host="app.diagrams.net" agent="Mozilla/5.0 (Windows NT 10.0; Win64; x64) AppleWebKit/537.36 (KHTML, like Gecko) Chrome/128.0.0.0 Safari/537.36 OPR/114.0.0.0" version="25.0.3">
  <diagram name="Страница — 1" id="SU1_5JqDS4_MwICAJfFR">
    <mxGraphModel dx="1012" dy="1022" grid="1" gridSize="10" guides="1" tooltips="1" connect="1" arrows="1" fold="1" page="1" pageScale="1" pageWidth="827" pageHeight="1169" math="0" shadow="0">
      <root>
        <mxCell id="0" />
        <mxCell id="1" parent="0" />
        <mxCell id="hjHIBadCNiAgtOUH_2MZ-1" value="" style="ellipse;whiteSpace=wrap;html=1;aspect=fixed;" parent="1" vertex="1">
          <mxGeometry x="1640" y="770" width="20" height="20" as="geometry" />
        </mxCell>
        <mxCell id="hjHIBadCNiAgtOUH_2MZ-3" value="" style="endArrow=classic;html=1;rounded=0;exitX=0.5;exitY=1;exitDx=0;exitDy=0;" parent="1" source="hjHIBadCNiAgtOUH_2MZ-1" edge="1">
          <mxGeometry width="50" height="50" relative="1" as="geometry">
            <mxPoint x="1730" y="1060" as="sourcePoint" />
            <mxPoint x="1650" y="930" as="targetPoint" />
          </mxGeometry>
        </mxCell>
        <mxCell id="hjHIBadCNiAgtOUH_2MZ-4" value="Открыта форма бронирования" style="rounded=0;whiteSpace=wrap;html=1;" parent="1" vertex="1">
          <mxGeometry x="1590" y="930" width="120" height="60" as="geometry" />
        </mxCell>
        <mxCell id="hjHIBadCNiAgtOUH_2MZ-5" value="" style="endArrow=classic;html=1;rounded=0;exitX=0;exitY=1;exitDx=0;exitDy=0;" parent="1" source="hjHIBadCNiAgtOUH_2MZ-4" edge="1">
          <mxGeometry width="50" height="50" relative="1" as="geometry">
            <mxPoint x="1730" y="1060" as="sourcePoint" />
            <mxPoint x="1460" y="1090" as="targetPoint" />
          </mxGeometry>
        </mxCell>
        <mxCell id="hjHIBadCNiAgtOUH_2MZ-6" value="Кнопка &quot;Добавить права&quot;&lt;br&gt;/&lt;br&gt;&quot;Добавить права и забронировать&quot;" style="text;html=1;align=center;verticalAlign=middle;whiteSpace=wrap;rounded=0;" parent="1" vertex="1">
          <mxGeometry x="1440" y="1000" width="150" height="60" as="geometry" />
        </mxCell>
        <mxCell id="hjHIBadCNiAgtOUH_2MZ-10" value="" style="endArrow=classic;html=1;rounded=0;exitX=1;exitY=1;exitDx=0;exitDy=0;" parent="1" source="hjHIBadCNiAgtOUH_2MZ-4" edge="1">
          <mxGeometry width="50" height="50" relative="1" as="geometry">
            <mxPoint x="1730" y="1240" as="sourcePoint" />
            <mxPoint x="1820" y="1100" as="targetPoint" />
          </mxGeometry>
        </mxCell>
        <mxCell id="hjHIBadCNiAgtOUH_2MZ-11" value="Кнопка &quot;Способ оплаты&quot;&lt;br&gt;/&lt;br&gt;&quot;Добавить способ оплаты и звбронировать&quot;" style="text;html=1;align=center;verticalAlign=middle;whiteSpace=wrap;rounded=0;" parent="1" vertex="1">
          <mxGeometry x="1690" y="1020" width="160" height="60" as="geometry" />
        </mxCell>
        <mxCell id="hjHIBadCNiAgtOUH_2MZ-12" value="Форма добавления прав" style="rounded=0;whiteSpace=wrap;html=1;" parent="1" vertex="1">
          <mxGeometry x="1400" y="1090" width="120" height="60" as="geometry" />
        </mxCell>
        <mxCell id="hjHIBadCNiAgtOUH_2MZ-15" value="" style="endArrow=classic;html=1;rounded=0;exitX=0;exitY=0.5;exitDx=0;exitDy=0;entryX=0;entryY=0.5;entryDx=0;entryDy=0;" parent="1" source="hjHIBadCNiAgtOUH_2MZ-12" target="hjHIBadCNiAgtOUH_2MZ-4" edge="1">
          <mxGeometry width="50" height="50" relative="1" as="geometry">
            <mxPoint x="1090" y="1090" as="sourcePoint" />
            <mxPoint x="1280" y="930" as="targetPoint" />
            <Array as="points">
              <mxPoint x="1300" y="960" />
            </Array>
          </mxGeometry>
        </mxCell>
        <mxCell id="hjHIBadCNiAgtOUH_2MZ-16" value="Кнопка &quot;Отмена&quot; / крестик справа вверху" style="text;html=1;align=center;verticalAlign=middle;whiteSpace=wrap;rounded=0;" parent="1" vertex="1">
          <mxGeometry x="1280" y="990" width="100" height="50" as="geometry" />
        </mxCell>
        <mxCell id="hjHIBadCNiAgtOUH_2MZ-18" value="Форма заполнена.&lt;br&gt;Нажать кнопку &quot;Добавить&quot;" style="text;html=1;align=center;verticalAlign=middle;whiteSpace=wrap;rounded=0;" parent="1" vertex="1">
          <mxGeometry x="1320" y="1185" width="140" height="50" as="geometry" />
        </mxCell>
        <mxCell id="hjHIBadCNiAgtOUH_2MZ-19" value="Форма выбора способа оплаты" style="rounded=0;whiteSpace=wrap;html=1;" parent="1" vertex="1">
          <mxGeometry x="1760" y="1100" width="120" height="60" as="geometry" />
        </mxCell>
        <mxCell id="hjHIBadCNiAgtOUH_2MZ-20" value="" style="endArrow=classic;html=1;rounded=0;exitX=0.5;exitY=1;exitDx=0;exitDy=0;" parent="1" source="hjHIBadCNiAgtOUH_2MZ-19" edge="1">
          <mxGeometry width="50" height="50" relative="1" as="geometry">
            <mxPoint x="1730" y="1240" as="sourcePoint" />
            <mxPoint x="1820" y="1260" as="targetPoint" />
          </mxGeometry>
        </mxCell>
        <mxCell id="hjHIBadCNiAgtOUH_2MZ-21" value="Форма добавления карты" style="rounded=0;whiteSpace=wrap;html=1;" parent="1" vertex="1">
          <mxGeometry x="1760" y="1260" width="120" height="60" as="geometry" />
        </mxCell>
        <mxCell id="hjHIBadCNiAgtOUH_2MZ-22" value="плюсик справа от &quot;Добавить карту&quot;" style="text;html=1;align=center;verticalAlign=middle;whiteSpace=wrap;rounded=0;" parent="1" vertex="1">
          <mxGeometry x="1750" y="1190" width="150" height="40" as="geometry" />
        </mxCell>
        <mxCell id="hjHIBadCNiAgtOUH_2MZ-24" value="" style="endArrow=classic;html=1;rounded=0;exitX=1;exitY=0.5;exitDx=0;exitDy=0;entryX=1;entryY=0.5;entryDx=0;entryDy=0;" parent="1" source="hjHIBadCNiAgtOUH_2MZ-21" target="hjHIBadCNiAgtOUH_2MZ-19" edge="1">
          <mxGeometry width="50" height="50" relative="1" as="geometry">
            <mxPoint x="2000" y="1300" as="sourcePoint" />
            <mxPoint x="2050" y="1250" as="targetPoint" />
            <Array as="points">
              <mxPoint x="1990" y="1200" />
            </Array>
          </mxGeometry>
        </mxCell>
        <mxCell id="hjHIBadCNiAgtOUH_2MZ-25" value="Кнопка &quot;Привязать&quot; / &quot;Отмена&quot;" style="text;html=1;align=center;verticalAlign=middle;whiteSpace=wrap;rounded=0;" parent="1" vertex="1">
          <mxGeometry x="1900" y="1170" width="170" height="60" as="geometry" />
        </mxCell>
        <mxCell id="hjHIBadCNiAgtOUH_2MZ-26" value="" style="endArrow=classic;html=1;rounded=0;exitX=0.75;exitY=0;exitDx=0;exitDy=0;entryX=1;entryY=0.5;entryDx=0;entryDy=0;" parent="1" source="hjHIBadCNiAgtOUH_2MZ-19" target="hjHIBadCNiAgtOUH_2MZ-4" edge="1">
          <mxGeometry width="50" height="50" relative="1" as="geometry">
            <mxPoint x="1980" y="1020" as="sourcePoint" />
            <mxPoint x="1870" y="890" as="targetPoint" />
            <Array as="points">
              <mxPoint x="1850" y="960" />
            </Array>
          </mxGeometry>
        </mxCell>
        <mxCell id="hjHIBadCNiAgtOUH_2MZ-27" value="Крестик справа вверху" style="text;html=1;align=center;verticalAlign=middle;whiteSpace=wrap;rounded=0;" parent="1" vertex="1">
          <mxGeometry x="1750" y="920" width="170" height="60" as="geometry" />
        </mxCell>
        <mxCell id="hjHIBadCNiAgtOUH_2MZ-29" value="" style="endArrow=classic;html=1;rounded=0;exitX=0.5;exitY=1;exitDx=0;exitDy=0;" parent="1" source="hjHIBadCNiAgtOUH_2MZ-4" edge="1">
          <mxGeometry width="50" height="50" relative="1" as="geometry">
            <mxPoint x="1730" y="1240" as="sourcePoint" />
            <mxPoint x="1650" y="1450" as="targetPoint" />
          </mxGeometry>
        </mxCell>
        <mxCell id="hjHIBadCNiAgtOUH_2MZ-30" value="Формы оплаты и прав заполнены.&amp;nbsp;&lt;br&gt;Нажатие кнопки &quot;Забронировать&quot;" style="text;html=1;align=center;verticalAlign=middle;whiteSpace=wrap;rounded=0;" parent="1" vertex="1">
          <mxGeometry x="1560" y="1290" width="180" height="80" as="geometry" />
        </mxCell>
        <mxCell id="hjHIBadCNiAgtOUH_2MZ-31" value="Окно с деталями бронирования машины" style="rounded=0;whiteSpace=wrap;html=1;" parent="1" vertex="1">
          <mxGeometry x="1590" y="1450" width="120" height="60" as="geometry" />
        </mxCell>
        <mxCell id="hjHIBadCNiAgtOUH_2MZ-33" value="Кнопка &quot;Отменить&quot;" style="text;html=1;align=center;verticalAlign=middle;whiteSpace=wrap;rounded=0;" parent="1" vertex="1">
          <mxGeometry x="1800" y="1435" width="160" height="75" as="geometry" />
        </mxCell>
        <mxCell id="hjHIBadCNiAgtOUH_2MZ-34" value="" style="endArrow=classic;html=1;rounded=0;exitX=0.5;exitY=1;exitDx=0;exitDy=0;" parent="1" source="hjHIBadCNiAgtOUH_2MZ-31" edge="1">
          <mxGeometry width="50" height="50" relative="1" as="geometry">
            <mxPoint x="1730" y="1510" as="sourcePoint" />
            <mxPoint x="1650" y="1600" as="targetPoint" />
          </mxGeometry>
        </mxCell>
        <mxCell id="hjHIBadCNiAgtOUH_2MZ-35" value="" style="ellipse;whiteSpace=wrap;html=1;aspect=fixed;fillColor=#000000;strokeColor=default;" parent="1" vertex="1">
          <mxGeometry x="1635" y="1600" width="30" height="30" as="geometry" />
        </mxCell>
        <mxCell id="hjHIBadCNiAgtOUH_2MZ-36" value="&lt;span style=&quot;font-size: 36px;&quot;&gt;Диаграмма состояний и переходов каршеринга&lt;/span&gt;" style="text;html=1;align=center;verticalAlign=middle;whiteSpace=wrap;rounded=0;" parent="1" vertex="1">
          <mxGeometry x="1350" y="610" width="610" height="100" as="geometry" />
        </mxCell>
        <mxCell id="T-3GrFH13JbnDlfHEB-5-1" value="" style="endArrow=classic;html=1;rounded=0;exitX=1;exitY=0.5;exitDx=0;exitDy=0;entryX=1;entryY=0.25;entryDx=0;entryDy=0;" parent="1" source="hjHIBadCNiAgtOUH_2MZ-21" target="hjHIBadCNiAgtOUH_2MZ-4" edge="1">
          <mxGeometry width="50" height="50" relative="1" as="geometry">
            <mxPoint x="1670" y="1160" as="sourcePoint" />
            <mxPoint x="2130" y="1290" as="targetPoint" />
            <Array as="points">
              <mxPoint x="2050" y="1290" />
              <mxPoint x="2050" y="850" />
            </Array>
          </mxGeometry>
        </mxCell>
        <mxCell id="T-3GrFH13JbnDlfHEB-5-2" value="Крестик справа вверху" style="text;html=1;align=center;verticalAlign=middle;whiteSpace=wrap;rounded=0;" parent="1" vertex="1">
          <mxGeometry x="1970" y="985" width="160" height="60" as="geometry" />
        </mxCell>
        <mxCell id="T-3GrFH13JbnDlfHEB-5-3" value="Окно с уведомлением об отправке данных на верификацию" style="rounded=0;whiteSpace=wrap;html=1;" parent="1" vertex="1">
          <mxGeometry x="1241" y="1280" width="120" height="60" as="geometry" />
        </mxCell>
        <mxCell id="T-3GrFH13JbnDlfHEB-5-4" value="" style="endArrow=classic;html=1;rounded=0;exitX=0.5;exitY=1;exitDx=0;exitDy=0;entryX=0.5;entryY=0;entryDx=0;entryDy=0;" parent="1" source="hjHIBadCNiAgtOUH_2MZ-12" target="T-3GrFH13JbnDlfHEB-5-3" edge="1">
          <mxGeometry width="50" height="50" relative="1" as="geometry">
            <mxPoint x="1670" y="1350" as="sourcePoint" />
            <mxPoint x="1720" y="1300" as="targetPoint" />
          </mxGeometry>
        </mxCell>
        <mxCell id="T-3GrFH13JbnDlfHEB-5-5" value="" style="endArrow=classic;html=1;rounded=0;exitX=0;exitY=0.5;exitDx=0;exitDy=0;entryX=0;entryY=0;entryDx=0;entryDy=0;" parent="1" source="T-3GrFH13JbnDlfHEB-5-3" target="hjHIBadCNiAgtOUH_2MZ-4" edge="1">
          <mxGeometry width="50" height="50" relative="1" as="geometry">
            <mxPoint x="1670" y="1350" as="sourcePoint" />
            <mxPoint x="950" y="1280" as="targetPoint" />
            <Array as="points">
              <mxPoint x="1080" y="1310" />
              <mxPoint x="1080" y="910" />
            </Array>
          </mxGeometry>
        </mxCell>
        <mxCell id="T-3GrFH13JbnDlfHEB-5-6" value="Кнопка &quot;Принято&quot;&lt;br&gt;/&lt;br&gt;крестик справа вверху" style="text;html=1;align=center;verticalAlign=middle;whiteSpace=wrap;rounded=0;" parent="1" vertex="1">
          <mxGeometry x="1010" y="1045" width="160" height="60" as="geometry" />
        </mxCell>
        <mxCell id="f2FKKdCKYiomxaR5VEGl-1" value="Окно с подтверждением отмены" style="rounded=0;whiteSpace=wrap;html=1;" vertex="1" parent="1">
          <mxGeometry x="2030" y="1450" width="120" height="60" as="geometry" />
        </mxCell>
        <mxCell id="f2FKKdCKYiomxaR5VEGl-2" value="" style="endArrow=classic;html=1;rounded=0;exitX=1;exitY=0.5;exitDx=0;exitDy=0;entryX=0;entryY=0.5;entryDx=0;entryDy=0;" edge="1" parent="1" source="hjHIBadCNiAgtOUH_2MZ-31" target="f2FKKdCKYiomxaR5VEGl-1">
          <mxGeometry width="50" height="50" relative="1" as="geometry">
            <mxPoint x="1630" y="1270" as="sourcePoint" />
            <mxPoint x="1680" y="1220" as="targetPoint" />
          </mxGeometry>
        </mxCell>
        <mxCell id="f2FKKdCKYiomxaR5VEGl-3" value="" style="endArrow=classic;html=1;rounded=0;exitX=0.5;exitY=1;exitDx=0;exitDy=0;entryX=0.565;entryY=1.008;entryDx=0;entryDy=0;entryPerimeter=0;" edge="1" parent="1" source="f2FKKdCKYiomxaR5VEGl-1" target="hjHIBadCNiAgtOUH_2MZ-31">
          <mxGeometry width="50" height="50" relative="1" as="geometry">
            <mxPoint x="1910" y="1700" as="sourcePoint" />
            <mxPoint x="1960" y="1650" as="targetPoint" />
            <Array as="points">
              <mxPoint x="1900" y="1640" />
            </Array>
          </mxGeometry>
        </mxCell>
        <mxCell id="f2FKKdCKYiomxaR5VEGl-4" value="Кнопка &quot;Нет&quot;" style="text;html=1;align=center;verticalAlign=middle;whiteSpace=wrap;rounded=0;" vertex="1" parent="1">
          <mxGeometry x="1830" y="1580" width="120" height="50" as="geometry" />
        </mxCell>
        <mxCell id="f2FKKdCKYiomxaR5VEGl-7" value="Кнопка &quot;Да&quot;" style="text;html=1;align=center;verticalAlign=middle;whiteSpace=wrap;rounded=0;" vertex="1" parent="1">
          <mxGeometry x="2160" y="1370" width="110" height="45" as="geometry" />
        </mxCell>
        <mxCell id="f2FKKdCKYiomxaR5VEGl-8" value="" style="endArrow=classic;html=1;rounded=0;exitX=1;exitY=0.5;exitDx=0;exitDy=0;entryX=0.5;entryY=1;entryDx=0;entryDy=0;" edge="1" parent="1" source="f2FKKdCKYiomxaR5VEGl-1" target="f2FKKdCKYiomxaR5VEGl-9">
          <mxGeometry width="50" height="50" relative="1" as="geometry">
            <mxPoint x="2180" y="1490" as="sourcePoint" />
            <mxPoint x="2280" y="1330" as="targetPoint" />
          </mxGeometry>
        </mxCell>
        <mxCell id="f2FKKdCKYiomxaR5VEGl-9" value="Окно отмены бронирования" style="rounded=0;whiteSpace=wrap;html=1;" vertex="1" parent="1">
          <mxGeometry x="2220" y="1270" width="120" height="60" as="geometry" />
        </mxCell>
        <mxCell id="f2FKKdCKYiomxaR5VEGl-11" value="" style="endArrow=classic;html=1;rounded=0;exitX=0.5;exitY=0;exitDx=0;exitDy=0;entryX=1;entryY=0;entryDx=0;entryDy=0;" edge="1" parent="1" source="f2FKKdCKYiomxaR5VEGl-9" target="hjHIBadCNiAgtOUH_2MZ-4">
          <mxGeometry width="50" height="50" relative="1" as="geometry">
            <mxPoint x="1630" y="1180" as="sourcePoint" />
            <mxPoint x="2060" y="760" as="targetPoint" />
            <Array as="points">
              <mxPoint x="2280" y="720" />
            </Array>
          </mxGeometry>
        </mxCell>
        <mxCell id="f2FKKdCKYiomxaR5VEGl-12" value="Кнопка &quot;Принято&quot;" style="text;html=1;align=center;verticalAlign=middle;whiteSpace=wrap;rounded=0;" vertex="1" parent="1">
          <mxGeometry x="2230" y="950" width="110" height="50" as="geometry" />
        </mxCell>
      </root>
    </mxGraphModel>
  </diagram>
</mxfile>
